<svg width="24" height="24" viewBox="0 0 24 24" fill="none" xmlns="http://www.w3.org/2000/svg">
<circle cx="12" cy="12" r="12" fill="#E9E9E9"/>
<path d="M5.1999 14.0001H6.4687L10.2343 17.7657C10.7383 18.2697 11.5999 17.9129 11.5999 17.2001V6.00005C11.5999 5.28725 10.7383 4.93045 10.2343 5.43445L6.4687 9.20005H5.1999C4.98773 9.20005 4.78425 9.28434 4.63422 9.43437C4.48419 9.5844 4.3999 9.78788 4.3999 10.0001V13.2001C4.3999 13.4122 4.48419 13.6157 4.63422 13.7657C4.78425 13.9158 4.98773 14.0001 5.1999 14.0001Z" stroke="#303030" stroke-width="1.6" stroke-linecap="round" stroke-linejoin="round"/>
<path d="M17.2001 11.6L18.8001 13.2M15.6001 13.2L17.2001 11.6L15.6001 13.2ZM17.2001 11.6L18.8001 10L17.2001 11.6ZM17.2001 11.6L15.6001 10L17.2001 11.6Z" stroke="#303030" stroke-width="1.6" stroke-linecap="round" stroke-linejoin="round"/>
</svg>
