<svg width="24" height="24" viewBox="0 0 24 24" fill="none" xmlns="http://www.w3.org/2000/svg">
<circle cx="12" cy="12" r="12" fill="#E9E9E9"/>
<path d="M14.4287 8.77125C14.8002 9.1427 15.095 9.58371 15.2961 10.0691C15.4971 10.5544 15.6006 11.0747 15.6006 11.6001C15.6006 12.1254 15.4971 12.6457 15.2961 13.131C15.095 13.6164 14.8002 14.0574 14.4287 14.4289M16.6911 6.50885C17.3597 7.17744 17.89 7.97116 18.2519 8.84471C18.6137 9.71826 18.8 10.6545 18.8 11.6001C18.8 12.5456 18.6137 13.4818 18.2519 14.3554C17.89 15.2289 17.3597 16.0227 16.6911 16.6913M6.4687 14.0001H5.1999C4.98773 14.0001 4.78425 13.9158 4.63422 13.7657C4.48419 13.6157 4.3999 13.4122 4.3999 13.2001V10.0001C4.3999 9.78788 4.48419 9.5844 4.63422 9.43437C4.78425 9.28434 4.98773 9.20005 5.1999 9.20005H6.4687L10.2343 5.43445C10.7383 4.93045 11.5999 5.28725 11.5999 6.00005V17.2001C11.5999 17.9129 10.7383 18.2697 10.2343 17.7657L6.4687 14.0001Z" stroke="#303030" stroke-width="1.6" stroke-linecap="round" stroke-linejoin="round"/>
</svg>
